PathFileType	4	(X/Y/Z)	C:\Users\WrightLab\Desktop\Jo\P1_boxCal22.trc
DataRate	CameraRate	NumFrames	NumMarkers	Units	OrigDataRate	OrigDataStartFrame	OrigNumFrames
100.00	100.00	       25	19	mm	100.00	575	       657
Frame#	Time	Headset_Front			Headset_Back			Headset_Left			Headset_Right			Left_Shoulder			Right_Shoulder			Sternum			C7			Left Elbow			Right Elbow			Left Wrist			Right Wrist			Left ASIS			Right ASIS			S2			Left Knee			Right Knee			Left Ankle			Right Ankle			
		X1	Y1	Z1	X2	Y2	Z2	X3	Y3	Z3	X4	Y4	Z4	X5	Y5	Z5	X6	Y6	Z6	X7	Y7	Z7	X8	Y8	Z8	X9	Y9	Z9	X10	Y10	Z10	X11	Y11	Z11	X12	Y12	Z12	X13	Y13	Z13	X14	Y14	Z14	X15	Y15	Z15	X16	Y16	Z16	X17	Y17	Z17	X18	Y18	Z18	X19	Y19	Z19	

575	5.740							-152.02867	1518.93811	2338.62793	-80.64925	943.12067	2300.39551							-217.49875	834.49457	2644.72363	-423.04745	180.05034	2593.32690							-401.68677	941.99646	2171.09448	-387.17459	524.53149	2503.98706							-399.46011	854.91370	2014.05835	-180.45839	1004.48132	2545.43750	-266.50449	499.64539	2149.48901				-101.66386	139.01991	2263.63916	
576	5.750							-159.11064	1518.08972	2348.01416	-86.48518	942.58844	2312.02002							-232.82988	835.24133	2651.20410	-422.78012	174.79590	2591.71338							-402.62897	942.15259	2170.59131	-396.44064	520.14966	2503.62549							-389.43457	851.62177	2011.95984	-192.40929	1004.58679	2553.33398	-268.11383	499.38519	2153.22925				-103.33389	141.16547	2266.72192	
577	5.760							-166.87567	1518.04358	2357.81836										-248.39177	835.58850	2657.88159	-422.76413	169.19058	2591.43994							-404.18573	942.25189	2171.75000	-404.61462	516.19177	2503.99854							-379.00476	849.79858	2008.70593	-204.70280	1005.72546	2561.09375	-269.59286	499.03342	2155.22510				-103.45033	140.03558	2267.66772	
578	5.770							-174.52843	1518.40149	2366.80225	-259.65164	234.67694	80.91065							-264.19125	836.15802	2663.80444	-421.28497	164.82147	2590.95459							-406.51239	941.99744	2174.50146	-412.56918	512.57574	2504.07495							-367.99915	846.76874	2006.94434	-216.90131	1005.94989	2569.30615	-271.65707	498.42731	2159.21924							
579	5.780							-182.15390	1519.29517	2375.93042													-420.76184	162.89157	2591.21973							-407.61813	941.73322	2175.90283	-420.18011	509.91608	2505.50000							-356.40665	844.52594	2001.91382	-230.00372	1006.67975	2577.38208	-272.92334	496.78052	2163.87183	-176.90579	1320.97546	2353.24170				
580	5.790							-190.21533	1520.30579	2384.70337	-294.99448	836.00195	2676.19141							-250.13914	705.44769	1991.04028	-421.32355	163.70920	2590.56543							-408.45877	941.82452	2177.24268	-428.07819	509.46295	2505.73755							-344.07492	842.97308	2001.31519	-242.85551	1007.60083	2585.45996	-273.83923	494.52039	2168.74487	-183.24896	1321.16882	2362.66406				
581	5.800							-198.07263	1521.43176	2393.21240													-424.91733	165.00563	2591.07520	-467.78955	944.12140	2378.55737				-409.91592	941.98755	2179.01294	-435.45938	510.06787	2506.92456							-331.10712	839.64795	2001.30786	-255.55167	1008.20050	2592.71289	-275.01678	493.35690	2173.26660	-190.24179	1320.62268	2369.58936				
582	5.810							-206.21381	1522.02673	2400.50684	-182.19760	1052.11951	2069.25269							-131.48410	937.60388	2381.17407	-428.07382	166.10181	2592.11719	-474.42737	944.74908	2378.88843							-441.89432	511.27570	2507.73657							-318.12286	839.20337	1997.94165	-268.75253	1009.16925	2599.71045	-276.69016	492.69644	2175.54126							
583	5.820							-214.00917	1523.51660	2409.09058													-432.20255	165.41037	2591.25244	-481.67175	945.50568	2378.43140							-448.11533	512.39502	2508.84790							-303.55145	838.13507	1999.86426	-282.24408	1010.55322	2606.14673	-278.41104	492.74734	2180.64282	-203.83333	1321.11560	2384.47339				
584	5.830	-172.01942	1053.39294	2090.82788	-144.92456	941.38086	2400.23975													-379.58163	137.65851	9.07764	-436.75949	163.42831	2589.84985	-488.36218	946.78113	2378.37354							-454.40912	513.01624	2510.23535							-289.32602	838.98682	1997.74854				-279.85751	491.21103	2187.33252	-211.03590	1321.33508	2390.63989				
585	5.840	-167.80255	1054.64331	2101.96899	-151.37056	942.47260	2408.29565																-440.21146	161.74986	2589.14111	-494.39572	948.13434	2378.04761							-460.57062	513.74738	2510.78076							-275.03769	838.94342	2001.70886				-281.39911	491.98743	2192.17065	-218.04854	1322.24573	2397.65454				
586	5.850	-165.10863	1056.72205	2112.14136	-158.02644	943.63849	2417.04956													-244.59386	242.97012	71.18593	-442.61136	160.25943	2588.95117	-500.19781	949.83221	2377.74365	-380.19879	137.00786	9.55641													-261.02731	841.05133	2002.47485				-282.82983	494.36203	2192.10181	-224.58296	1322.71631	2403.67188				
587	5.860	-162.37836	1058.53442	2122.85693	-163.95663	945.07941	2425.73315																-444.13748	156.06985	2586.05615	-505.70847	951.06964	2377.20239							-407.68884	832.82281	2691.12109							-246.17084	843.10663	2005.15601				-283.87299	495.34686	2196.26318	-230.98557	1323.90552	2410.07715				
588	5.870	-160.23587	1060.59106	2132.86426	-169.70651	946.84283	2433.89502													-410.58578	834.93042	2686.32764	-444.69064	154.82718	2585.37427	-510.94669	952.25549	2376.95435	-259.49326	234.45732	80.92233													-232.28864	845.33752	2007.32800				-284.01514	496.59662	2196.39404	-237.85849	1325.33435	2415.83398				
589	5.880	-158.34210	1061.99622	2140.66846	-176.09409	948.49017	2442.02148																-444.88773	154.46680	2584.99072	-515.48010	953.16833	2376.41821							-259.08380	235.28191	80.43530							-219.10019	848.16156	2012.16614				-284.13013	497.35956	2201.66772	-244.05122	1326.58545	2421.78638				
590	5.890	-156.82646	1063.76355	2147.73901	-182.52150	949.90125	2449.90283													-259.08380	235.28191	80.43530	-445.49826	154.92853	2585.52148	-519.24847	954.23291	2375.96387																-206.25456	850.96088	2017.25562				-283.36081	498.74033	2205.72729	-250.47931	1328.27466	2427.46973				
591	5.900	-155.29973	1064.98169	2155.48486	-188.92447	951.39197	2457.57935																-446.41541	156.24756	2586.23779	-522.80792	955.28357	2375.59717	-259.08380	235.28191	80.43530													-193.63795	852.43341	2021.99268				-282.31577	501.05725	2205.42676	-256.38055	1329.46362	2432.19727				
592	5.910	-153.67999	1066.39160	2161.68848	-194.93854	952.81281	2465.76880													-46.58424	201.67406	2368.11914	-446.80026	156.11699	2586.29053	-526.45245	956.36310	2374.64331	-259.08380	235.28191	80.43530													-182.05508	854.92090	2027.61511				-281.15363	501.62305	2212.94995							
593	5.920	-151.74947	1067.88196	2167.57324	-201.16606	954.13135	2473.50342																-447.42783	155.50368	2585.84033	-529.15289	957.37769	2372.48657	-259.08380	235.28191	80.43530													-169.83592	856.72192	2035.00696	-365.26291	145.21432	-0.93637	-279.56860	500.46420	2220.28857				-55.24884	202.18922	2387.49048	
594	5.930	-149.15849	1069.49146	2173.10571	-208.09796	954.93762	2480.35864													-66.10329	201.11667	2407.41138	-448.19696	155.61400	2585.33203	-532.34241	958.34766	2371.53174	-259.08380	235.28191	80.43530													-159.18842	858.69025	2040.30505				-278.41483	502.81107	2221.43872							
595	5.940	-146.98247	1070.87891	2178.87012	-214.46536	956.50311	2488.26123																-449.33878	156.08073	2584.91016	-534.72815	959.30536	2370.31934	-259.49326	234.45732	80.92233													-148.08839	860.78101	2048.55493	-77.92142	198.80898	2426.30859	-277.07419	503.37396	2227.14697							
596	5.950	-144.25452	1072.80103	2183.62915	-221.34251	957.04602	2494.72925													-90.84712	196.20718	2443.45801	-450.16620	156.19508	2584.90723	-537.79803	959.74133	2368.65210	-259.27396	234.80318	80.69703													-138.03702	862.47699	2055.70044				-275.34485	502.32748	2234.31274	-363.35559	145.15039	-0.18343				
597	5.960	-141.96222	1074.20093	2189.03662																			-451.45645	157.55417	2585.81299	-539.79449	960.43188	2366.98901	-259.08380	235.28191	80.43530													-128.59398	864.62366	2065.14575	-379.58163	137.65851	9.07764	-273.57385	503.69214	2241.02686							
598	5.970	-139.42867	1075.69238	2195.33081	-116.47708	189.28345	2475.05347													-379.58163	137.65851	9.07764	-452.39084	157.53583	2585.64404	-542.79327	960.79462	2365.34131	-259.08380	235.28191	80.43530													-119.35417	866.73492	2073.27124				-271.68530	504.02658	2247.74194	-1043.49023	-301.48053	617.84662				
599	5.980	-137.31651	1077.49329	2202.27173																			-453.89825	158.29636	2585.20654	-544.68268	961.30249	2362.27271	-259.08380	235.28191	80.43530													-111.20696	868.42603	2082.18481	-241.01208	958.06165	2513.80835	-268.77649	503.26712	2254.75049				-130.05563	185.73164	2489.06104	
